<?xml version="1.0" encoding="UTF-8" standalone="no"?>
<!DOCTYPE svg PUBLIC "-//W3C//DTD SVG 1.1//EN" "http://www.w3.org/Graphics/SVG/1.1/DTD/svg11.dtd">
<svg width="100px" height="100px" version="1.1" xmlns="http://www.w3.org/2000/svg" xmlns:xlink="http://www.w3.org/1999/xlink" xml:space="preserve" xmlns:serif="http://www.serif.com/" style="fill-rule:evenodd;clip-rule:evenodd;stroke-linejoin:round;stroke-miterlimit:2;">
    <g transform="matrix(1,0,0,1,-193.752,-7.10543e-15)">
        <g id="Planet1" transform="matrix(3.125,0,0,3.125,-693.96,7.10543e-15)">
            <rect x="284.068" y="0" width="32" height="32" style="fill:none;"/>
            <g transform="matrix(0.887032,0,0,0.887032,158.535,-64.6248)">
                <circle cx="159.558" cy="90.893" r="18.038" style="fill:rgb(212,80,80);"/>
                <clipPath id="_clip1">
                    <circle cx="159.558" cy="90.893" r="18.038"/>
                </clipPath>
                <g clip-path="url(#_clip1)">
                    <g transform="matrix(0.360753,0,0,0.360753,71.4604,71.6753)">
                        <path d="M298.16,40.858C261.76,51.6 225.792,51.531 190.248,40.858L190.248,45.668C226.077,55.772 262.046,55.837 298.16,45.668L298.16,40.858Z" style="fill:rgb(242,175,13);"/>
                    </g>
                    <g transform="matrix(0.360753,0,0,0.360753,71.4604,73.9142)">
                        <path d="M298.16,40.858C261.76,51.6 225.792,51.531 190.248,40.858L190.248,45.668C226.077,55.772 262.046,55.837 298.16,45.668L298.16,40.858Z" style="fill:rgb(242,175,13);"/>
                    </g>
                    <g transform="matrix(0.360753,0,0,0.360753,71.4604,76.1531)">
                        <path d="M298.16,40.858C261.76,51.6 225.792,51.531 190.248,40.858L190.248,45.668C226.077,55.772 262.046,55.837 298.16,45.668L298.16,40.858Z" style="fill:rgb(242,175,13);"/>
                    </g>
                </g>
            </g>
        </g>
    </g>
</svg>
