<?xml version="1.0" encoding="UTF-8" standalone="no"?>
<!DOCTYPE svg PUBLIC "-//W3C//DTD SVG 1.1//EN" "http://www.w3.org/Graphics/SVG/1.1/DTD/svg11.dtd">
<svg width="100px" height="100px" version="1.1" xmlns="http://www.w3.org/2000/svg" xmlns:xlink="http://www.w3.org/1999/xlink" xml:space="preserve" xmlns:serif="http://www.serif.com/" style="fill-rule:evenodd;clip-rule:evenodd;stroke-linejoin:round;stroke-miterlimit:2;">
    <g transform="matrix(1,0,0,1,-305.374,-7.10543e-15)">
        <g id="Planet2" transform="matrix(1,0,0,1,-88.3782,7.10543e-15)">
            <rect x="393.752" y="0" width="100" height="100" style="fill:none;"/>
            <clipPath id="_clip1">
                <rect x="393.752" y="0" width="100" height="100"/>
            </clipPath>
            <g clip-path="url(#_clip1)">
                <g transform="matrix(2.77198,0,0,2.77198,1.46101,-201.953)">
                    <circle cx="159.558" cy="90.893" r="18.038" style="fill:rgb(77,161,179);"/>
                    <clipPath id="_clip2">
                        <circle cx="159.558" cy="90.893" r="18.038"/>
                    </clipPath>
                    <g clip-path="url(#_clip2)">
                        <g transform="matrix(0.379413,0,0,0.360753,-17.0763,70.8181)">
                            <rect x="420.287" y="24.602" width="60.648" height="10.038" style="fill:rgb(64,79,191);"/>
                        </g>
                        <g transform="matrix(0.503811,0,0,0.360753,-62.7953,78.396)">
                            <rect x="420.287" y="24.602" width="60.648" height="10.038" style="fill:rgb(64,79,191);"/>
                        </g>
                        <g transform="matrix(0.459028,0,0,0.729591,-51.4032,78.6015)">
                            <rect x="420.287" y="24.602" width="60.648" height="10.038" style="fill:rgb(64,79,191);"/>
                        </g>
                        <g transform="matrix(0.477687,0,0,0.165913,-55.1276,88.8073)">
                            <rect x="420.287" y="24.602" width="60.648" height="10.038" style="fill:rgb(64,79,191);"/>
                        </g>
                    </g>
                </g>
            </g>
        </g>
    </g>
</svg>
