<svg width="100px" height="100px" xmlns="http://www.w3.org/2000/svg" xmlns:xlink="http://www.w3.org/1999/xlink" xml:space="preserve" xmlns:serif="http://www.serif.com/" style="fill-rule:evenodd;clip-rule:evenodd;stroke-linejoin:round;stroke-miterlimit:2;">
    <g transform="matrix(1,0,0,1,-422.289,-1.42109e-14)">
        <g transform="matrix(1,0,0,1,-83.0845,1.42109e-14)">
            <rect x="505.374" y="0" width="100" height="100" style="fill:none;"/>
            <g transform="matrix(-0.911874,-0.90562,-0.780304,0.785692,1092.79,497.215)">
                <path d="M544.203,-3.866L539.811,-3.866C549.227,34.322 548.953,73.887 539.811,114.712L544.203,114.712C553.243,76.076 553.605,36.586 544.203,-3.866Z" style="fill:rgb(103,116,211);"/>
            </g>
            <g transform="matrix(2.32943,0,0,2.32943,183.695,-161.728)">
                <circle cx="159.558" cy="90.893" r="18.038" style="fill:rgb(139,64,191);"/>
            </g>
            <g transform="matrix(0.911874,0.90562,-0.780304,0.785692,104.491,-484.305)">
                <path d="M544.203,-3.866L539.811,-3.866C549.227,34.322 548.953,73.887 539.811,114.712L544.203,114.712C553.243,76.076 553.605,36.586 544.203,-3.866Z" style="fill:rgb(51,69,204);"/>
            </g>
        </g>
    </g>
</svg>
