<svg width="32px" height="32px" xmlns="http://www.w3.org/2000/svg" xmlns:xlink="http://www.w3.org/1999/xlink" xml:space="preserve" xmlns:serif="http://www.serif.com/" style="fill-rule:evenodd;clip-rule:evenodd;stroke-linejoin:round;stroke-miterlimit:2;">
    <g transform="matrix(1,0,0,1,-193.922,0)">
        <g transform="matrix(1,0,0,1,-234.615,0)">
            <rect x="428.537" y="0" width="32" height="32" style="fill:none;"/>
            <g transform="matrix(6.99123e-17,1.14176,-1.14834,7.03153e-17,464.028,-225.891)">
                <path d="M211.859,3.638C211.859,3.638 204.903,17.466 204.903,23.392C204.903,27.209 208.02,30.308 211.859,30.308C215.698,30.308 218.814,27.209 218.814,23.392C218.814,17.466 211.859,3.638 211.859,3.638Z" style="fill:rgb(218,218,218);"/>
            </g>
            <g transform="matrix(5.02902e-17,0.821301,-0.826035,5.05801e-17,454.26,-158)">
                <path d="M211.859,3.638C211.859,3.638 204.903,17.466 204.903,23.392C204.903,27.209 208.02,30.308 211.859,30.308C215.698,30.308 218.814,27.209 218.814,23.392C218.814,17.466 211.859,3.638 211.859,3.638Z" style="fill:rgb(176,176,176);"/>
            </g>
            <g transform="matrix(3.61754e-17,0.590789,-0.594194,3.63839e-17,447.233,-109.164)">
                <path d="M211.859,3.638C211.859,3.638 204.903,17.466 204.903,23.392C204.903,27.209 208.02,30.308 211.859,30.308C215.698,30.308 218.814,27.209 218.814,23.392C218.814,17.466 211.859,3.638 211.859,3.638Z" style="fill:rgb(128,128,128);"/>
            </g>
        </g>
    </g>
</svg>
