<svg width="32px" height="32px" xmlns="http://www.w3.org/2000/svg" xmlns:xlink="http://www.w3.org/1999/xlink" xml:space="preserve" xmlns:serif="http://www.serif.com/" style="fill-rule:evenodd;clip-rule:evenodd;stroke-linejoin:round;stroke-miterlimit:2;">
    <g transform="matrix(1,0,0,1,-113.188,0)">
        <g transform="matrix(0.5,0,0,0.5,-5.73931,0)">
            <rect x="237.855" y="0" width="64" height="64" style="fill:none;"/>
            <g transform="matrix(1.51847,1.51847,-1.51847,1.51847,-94.3153,-408.154)">
                <g>
                    <g transform="matrix(4.51816e-17,0.737871,-0.603354,3.69448e-17,271.099,-103.471)">
                        <rect x="173.764" y="13.709" width="0.937" height="6.056" style="fill:rgb(231,230,230);"/>
                    </g>
                    <g transform="matrix(4.51816e-17,0.737871,-0.603354,3.69448e-17,278.844,-103.471)">
                        <rect x="173.764" y="13.709" width="0.937" height="6.056" style="fill:rgb(231,230,230);"/>
                    </g>
                    <g>
                        <g transform="matrix(0.857056,-6.75445e-18,-4.9879e-18,1.10544,116.043,-4.94482)">
                            <path d="M177.161,34.144L170.083,34.144L171.852,31.503L175.391,31.503L177.161,34.144Z" style="fill:rgb(93,90,90);"/>
                        </g>
                        <g transform="matrix(2.79322e-17,-0.456168,0.452027,2.76787e-17,253.537,98.5301)">
                            <rect x="149.32" y="20.046" width="23.346" height="9.948" style="fill:rgb(150,149,149);"/>
                        </g>
                    </g>
                </g>
                <g transform="matrix(0.53814,0,0,0.53814,166.691,11.5558)">
                    <rect x="149.32" y="20.046" width="23.346" height="9.948" style="fill:rgb(13,121,242);"/>
                    <clipPath id="_clip1">
                        <rect x="149.32" y="20.046" width="23.346" height="9.948"/>
                    </clipPath>
                    <g clip-path="url(#_clip1)">
                        <g transform="matrix(1.60929,-0.929127,1.00573,1.74197,-130.2,114.314)">
                            <rect x="156.602" y="29.123" width="0.629" height="6.624" style="fill:rgb(210,209,209);"/>
                        </g>
                        <g transform="matrix(1.60929,-0.929127,1.00573,1.74197,-127.988,114.314)">
                            <rect x="156.602" y="29.123" width="0.629" height="6.624" style="fill:rgb(210,209,209);"/>
                        </g>
                    </g>
                </g>
                <g transform="matrix(0.53814,0,0,0.53814,189.727,11.5558)">
                    <rect x="149.32" y="20.046" width="23.346" height="9.948" style="fill:rgb(13,121,242);"/>
                    <clipPath id="_clip2">
                        <rect x="149.32" y="20.046" width="23.346" height="9.948"/>
                    </clipPath>
                    <g clip-path="url(#_clip2)">
                        <g transform="matrix(1.60929,-0.929127,1.00573,1.74197,-120.972,114.314)">
                            <rect x="156.602" y="29.123" width="0.629" height="6.624" style="fill:rgb(210,209,209);"/>
                        </g>
                        <g transform="matrix(1.60929,-0.929127,1.00573,1.74197,-118.76,114.314)">
                            <rect x="156.602" y="29.123" width="0.629" height="6.624" style="fill:rgb(210,209,209);"/>
                        </g>
                    </g>
                </g>
                <g>
                    <g transform="matrix(0.810924,0,0,0.358055,121.718,11.0536)">
                        <circle cx="176.5" cy="26.507" r="5.493" style="fill:rgb(201,201,201);"/>
                    </g>
                    <g transform="matrix(0.810924,0,0,0.304637,121.718,12.1762)">
                        <circle cx="176.5" cy="26.507" r="5.493" style="fill:rgb(231,230,230);"/>
                    </g>
                    <g transform="matrix(0.490077,0,0,0.508337,179.459,10.4974)">
                        <rect x="173.764" y="13.709" width="0.937" height="6.056" style="fill:rgb(175,175,175);"/>
                    </g>
                    <g transform="matrix(0.796973,0,0,0.796973,128.112,6.31068)">
                        <circle cx="171.568" cy="13.997" r="0.518" style="fill:rgb(175,175,175);"/>
                    </g>
                </g>
            </g>
        </g>
    </g>
</svg>
