<?xml version="1.0" encoding="UTF-8" standalone="no"?>
<!DOCTYPE svg PUBLIC "-//W3C//DTD SVG 1.1//EN" "http://www.w3.org/Graphics/SVG/1.1/DTD/svg11.dtd">
<svg width="32px" height="32px" version="1.1" xmlns="http://www.w3.org/2000/svg" xmlns:xlink="http://www.w3.org/1999/xlink" xml:space="preserve" xmlns:serif="http://www.serif.com/" style="fill-rule:evenodd;clip-rule:evenodd;stroke-linejoin:round;stroke-miterlimit:2;">
    <g transform="matrix(1,0,0,1,-152.068,-3.55271e-15)">
        <g id="Satellite3" transform="matrix(0.5,0,0,0.5,-3.78689,3.55271e-15)">
            <rect x="311.709" y="0" width="64" height="64" style="fill:none;"/>
            <g id="Satellite" transform="matrix(1.49472,-1.49472,1.49472,1.49472,-89.5605,390.474)">
                <g id="Body">
                    <g transform="matrix(4.51816e-17,0.737871,-0.603354,3.69448e-17,271.099,-103.471)">
                        <rect x="173.764" y="13.709" width="0.937" height="6.056" style="fill:rgb(231,230,230);"/>
                    </g>
                    <g transform="matrix(4.51816e-17,0.737871,-0.603354,3.69448e-17,278.844,-103.471)">
                        <rect x="173.764" y="13.709" width="0.937" height="6.056" style="fill:rgb(231,230,230);"/>
                    </g>
                    <g transform="matrix(0.372064,-0.214811,0.316093,0.547489,195.862,46.967)">
                        <rect x="173.764" y="13.709" width="0.937" height="6.056" style="fill:rgb(231,230,230);"/>
                    </g>
                    <g transform="matrix(-0.372064,-0.214811,-0.316093,0.547489,333.831,46.967)">
                        <rect x="173.764" y="13.709" width="0.937" height="6.056" style="fill:rgb(231,230,230);"/>
                    </g>
                    <g transform="matrix(2.0803e-17,-0.339739,0.600117,3.67466e-17,249.831,78.4267)">
                        <path d="M172.667,23.472C172.667,22.563 172.029,21.692 170.894,21.05C169.76,20.407 168.221,20.046 166.616,20.046C163.156,20.046 158.831,20.046 155.372,20.046C153.767,20.046 152.228,20.407 151.093,21.05C149.958,21.692 149.32,22.563 149.32,23.472C149.32,24.473 149.32,25.567 149.32,26.568C149.32,27.477 149.958,28.348 151.093,28.99C152.228,29.633 153.767,29.994 155.372,29.994C158.831,29.994 163.156,29.994 166.616,29.994C168.221,29.994 169.76,29.633 170.894,28.99C172.029,28.348 172.667,27.477 172.667,26.568C172.667,25.567 172.667,24.473 172.667,23.472Z" style="fill:rgb(150,149,149);"/>
                    </g>
                    <g transform="matrix(0.645931,0,0,0.645931,101.97,5.16785)">
                        <circle cx="252.2" cy="18.232" r="1.049" style="fill:rgb(175,175,175);"/>
                    </g>
                </g>
                <g id="LeftWing" transform="matrix(0.53814,0,0,0.53814,166.691,11.5558)">
                    <rect x="149.32" y="20.046" width="23.346" height="9.948" style="fill:rgb(147,13,242);"/>
                    <clipPath id="_clip1">
                        <rect x="149.32" y="20.046" width="23.346" height="9.948"/>
                    </clipPath>
                    <g clip-path="url(#_clip1)">
                        <g transform="matrix(1.60929,-0.929127,1.00573,1.74197,-130.2,114.314)">
                            <rect x="156.602" y="29.123" width="0.629" height="6.624" style="fill:rgb(210,209,209);"/>
                        </g>
                        <g transform="matrix(5.07082,-2.92764,1.16372,2.01561,-666.996,418.758)">
                            <rect x="156.602" y="29.123" width="0.629" height="6.624" style="fill:rgb(210,209,209);"/>
                        </g>
                    </g>
                </g>
                <g id="RightWing" transform="matrix(0.53814,0,0,0.53814,189.727,11.5558)">
                    <rect x="149.32" y="20.046" width="23.346" height="9.948" style="fill:rgb(147,13,242);"/>
                    <clipPath id="_clip2">
                        <rect x="149.32" y="20.046" width="23.346" height="9.948"/>
                    </clipPath>
                    <g clip-path="url(#_clip2)">
                        <g transform="matrix(-1.60929,-0.929127,-1.00573,1.74197,444.423,114.314)">
                            <rect x="156.602" y="29.123" width="0.629" height="6.624" style="fill:rgb(210,209,209);"/>
                        </g>
                        <g transform="matrix(-1.60929,-0.929127,-1.00573,1.74197,442.212,114.314)">
                            <rect x="156.602" y="29.123" width="0.629" height="6.624" style="fill:rgb(210,209,209);"/>
                        </g>
                    </g>
                </g>
            </g>
        </g>
    </g>
</svg>
