<svg width="64px" height="64px" xmlns="http://www.w3.org/2000/svg" xmlns:xlink="http://www.w3.org/1999/xlink" xml:space="preserve" xmlns:serif="http://www.serif.com/" style="fill-rule:evenodd;clip-rule:evenodd;stroke-linejoin:round;stroke-miterlimit:2;">
    <g transform="matrix(0.0592593,0,0,0.0592593,0,0)">
        <rect x="0" y="0" width="1080" height="1080" style="fill:none;"/>
        <g transform="matrix(1.32953,0,0,-1.32953,-177.947,1257.95)">
            <g>
                <g transform="matrix(23.1533,4.36757,-6.20391,16.3,-52.5023,165.375)">
                    <rect x="21.816" y="23.921" width="10.184" height="1.661" style="fill:rgb(77,74,74);"/>
                </g>
                <g transform="matrix(23.1533,4.36757,-6.20391,16.3,-52.5023,224.79)">
                    <rect x="21.816" y="23.921" width="10.184" height="1.661" style="fill:rgb(77,74,74);"/>
                </g>
                <g transform="matrix(3.06682e-15,-50.085,3.70665,2.26967e-16,130.265,1182.71)">
                    <path d="M8.778,7.479L20.942,52.373L4.723,52.373L8.778,7.479Z" style="fill:rgb(210,209,209);"/>
                </g>
            </g>
            <g transform="matrix(-1,0,0,1,1080,0)">
                <g transform="matrix(23.1533,4.36757,-6.20391,16.3,-52.5023,165.375)">
                    <rect x="21.816" y="23.921" width="10.184" height="1.661" style="fill:rgb(77,74,74);"/>
                </g>
                <g transform="matrix(23.1533,4.36757,-6.20391,16.3,-52.5023,224.79)">
                    <rect x="21.816" y="23.921" width="10.184" height="1.661" style="fill:rgb(77,74,74);"/>
                </g>
                <g transform="matrix(3.06682e-15,-50.085,3.70665,2.26967e-16,130.265,1182.71)">
                    <path d="M8.778,7.479L20.942,52.373L4.723,52.373L8.778,7.479Z" style="fill:rgb(210,209,209);"/>
                </g>
            </g>
            <g>
                <g transform="matrix(16.875,0,0,16.875,-11.5445,112.73)">
                    <path d="M32.684,14.356L40.274,40.63L32.684,49.388L25.094,40.63L32.684,14.356Z" style="fill:rgb(210,209,209);"/>
                </g>
                <g transform="matrix(4.76906e-15,77.8846,-3.65625,2.23881e-16,745.001,-2137.32)">
                    <path d="M37.693,21.036L39.59,56.069L32,56.069L37.693,21.036Z" style="fill:rgb(203,97,97);"/>
                </g>
            </g>
        </g>
    </g>
</svg>
